<?xml version="1.0" encoding="utf-8"?>
<!-- Generator: Adobe Illustrator 22.0.1, SVG Export Plug-In . SVG Version: 6.00 Build 0)  -->
<svg version="1.1" id="Layer_1" xmlns="http://www.w3.org/2000/svg" xmlns:xlink="http://www.w3.org/1999/xlink" x="0px" y="0px"
	 viewBox="0 0 500 500" style="enable-background:new 0 0 500 500;" xml:space="preserve">
<style type="text/css">
	.st0{fill:#CB2E62;}
	.st1{fill:#FFFFFF;}
</style>
<rect class="st0" width="500" height="500"/>
<path class="st1" d="M360.1,35.5c0.3,2.9,0.4,5.9,0.4,8.8c0,21.9-8,42.4-24,61.3c-19.3,22.5-42.6,35.5-67.8,33.5
	c-0.3-2.6-0.5-5.4-0.5-8.3c0-21,9.2-43.6,25.4-62c8.1-9.3,18.5-17.1,31-23.3C337.1,39.5,349,36.1,360.1,35.5z"/>
<path class="st1" d="M358.8,285.1c0-26.8,12.9-50.5,32.8-65.3l-29.3-49.5c-4.9-8.1-14.3-13.4-23.9-13.4H187.9
	c-9.6,0-19,5.3-23.9,13.4l-75.3,127c-4.8,8.1-4.8,18.7,0,26.8l75.3,127c4.8,8.1,14.2,13.4,23.9,13.4h150.6c9.6,0,19-5.3,23.9-13.4
	l52.6-88.7C382.3,351.8,358.8,321.2,358.8,285.1z"/>
<path class="st0" d="M229.5,335.3v36.9l-22.5,5.1l-41-35.9v-15.4l23.6-15.4L166,295.3v-15.4l41-35.9l23.6,5.1v36.9l37.9-26.6
	l30.7,10.3v82l-30.7,10.2L229.5,335.3z M207,356.8v-35.9l-28.7,14.3L207,356.8z M268.4,331.2v-41l-38.9,20.5L268.4,331.2z
	 M207,300.4v-35.9l-28.7,21.5L207,300.4z"/>
</svg>
